<?xml version="1.0" encoding="utf-8"?>
<!-- Generator: Adobe Illustrator 19.2.0, SVG Export Plug-In . SVG Version: 6.00 Build 0)  -->
<svg version="1.1" id="Layer_1" xmlns="http://www.w3.org/2000/svg" xmlns:xlink="http://www.w3.org/1999/xlink" x="0px" y="0px"
	 viewBox="0 0 365.2 62" style="enable-background:new 0 0 365.2 62;" xml:space="preserve">
<style type="text/css">
	.st0{fill:none;}
</style>
<path class="st0" d="M41.7,51.7h0.2V1.6h6v58.9h-7.5L6.2,9.8H6v50.6H0V1.6h7.5L41.7,51.7z"/>
<path class="st0" d="M83.6,62c-4.4,0-8.1-0.8-10.9-2.3c-2.8-1.5-5.1-3.5-6.7-5.8c-1.7-2.3-2.8-4.9-3.5-7.6c-0.6-2.7-1-5.3-1-7.8V1.6
	h6v36.3c0,2.4,0.3,4.7,0.8,6.9c0.6,2.2,1.5,4.2,2.7,6c1.2,1.7,2.9,3.2,4.9,4.2c2.1,1.1,4.6,1.6,7.6,1.6s5.5-0.5,7.6-1.6
	c2.1-1.1,3.7-2.5,4.9-4.2c1.2-1.7,2.1-3.7,2.7-6c0.6-2.2,0.8-4.6,0.8-6.9V1.6h6v36.9c0,2.4-0.3,5-1,7.8c-0.6,2.7-1.8,5.3-3.5,7.6
	c-1.7,2.3-3.9,4.3-6.8,5.8C91.6,61.2,88,62,83.6,62z"/>
<path class="st0" d="M159.7,59.4c-3.8,1.7-8.2,2.6-13.2,2.6c-4.5,0-8.7-0.7-12.6-2.2c-3.9-1.5-7.2-3.6-10-6.4c-2.8-2.7-5-6-6.7-9.9
	c-1.6-3.8-2.4-8-2.4-12.6c0-4.7,0.8-9,2.5-12.8c1.6-3.8,3.9-7.1,6.8-9.8c2.9-2.7,6.3-4.8,10.1-6.2C138,0.7,142.2,0,146.7,0
	c4.2,0,8.2,0.7,12.3,2.2c4,1.5,7.3,3.6,9.8,6.4l-9.6,9.6c-1.3-1.8-3.1-3.2-5.2-4.1c-2.2-0.9-4.4-1.3-6.7-1.3c-2.5,0-4.8,0.5-6.9,1.4
	c-2.1,0.9-3.9,2.2-5.4,3.8c-1.5,1.6-2.7,3.5-3.5,5.7c-0.8,2.2-1.2,4.6-1.2,7.2c0,2.7,0.4,5.1,1.2,7.3c0.8,2.2,2,4.1,3.5,5.7
	c1.5,1.6,3.2,2.8,5.3,3.7c2.1,0.9,4.3,1.3,6.7,1.3c2.8,0,5.3-0.6,7.4-1.7c2.1-1.1,3.8-2.6,5.1-4.3l9.9,9.3
	C166.7,55.3,163.5,57.7,159.7,59.4z"/>
<path class="st0" d="M208.6,60.5l-12.8-23.4h-4.8v23.4h-13.9V1.6h22.5c2.8,0,5.6,0.3,8.3,0.9c2.7,0.6,5.1,1.6,7.2,3
	c2.1,1.4,3.8,3.2,5.1,5.5s1.9,5.1,1.9,8.5c0,4-1.1,7.3-3.2,10.1c-2.2,2.7-5.2,4.7-9,5.8l15.4,25.2H208.6z M208,19.6
	c0-1.4-0.3-2.5-0.9-3.4c-0.6-0.9-1.3-1.5-2.3-2c-0.9-0.5-2-0.8-3.1-1c-1.1-0.2-2.2-0.2-3.3-0.2h-7.6v13.7h6.8c1.2,0,2.4-0.1,3.6-0.3
	c1.2-0.2,2.3-0.5,3.3-1c1-0.5,1.8-1.2,2.5-2.2C207.7,22.3,208,21.1,208,19.6z"/>
<path class="st0" d="M233.9,60.5V1.6h39.6v12h-25.9v11.1H272v11.4h-24.5v12.2h27.4v12.1H233.9z"/>
<path class="st0" d="M348.4,60.5h-14.1l-11.6-39.8h-0.2l-11.6,39.8h-14.1L279.9,1.6h15.3l9.3,39.2h0.2l10.5-39.2h14.8l10.6,39.2h0.2
	l9.5-39.2h14.8L348.4,60.5z"/>
</svg>
