<?xml version="1.0" encoding="utf-8"?>
<!-- Generator: Adobe Illustrator 19.2.0, SVG Export Plug-In . SVG Version: 6.00 Build 0)  -->
<svg version="1.1" id="Layer_1" xmlns="http://www.w3.org/2000/svg" xmlns:xlink="http://www.w3.org/1999/xlink" x="0px" y="0px"
	 viewBox="0 0 328.3 52.2" style="enable-background:new 0 0 328.3 52.2;" xml:space="preserve">
<style type="text/css">
	.st0{fill:#FF4377;}
</style>
<path class="st0" d="M22.5,0c-3.6,0-7,0.8-9.9,2.2c-1.3-1-3.1-1.7-4.9-1.7C3.4,0.5,0,4,0,8.2v35.1c0,4.4,4,8,8.5,8
	c4.5,0,8.5-3.7,8.5-8V22.4c0-3.5,1.6-6.2,5.1-6.2c3.5,0,4.9,2.7,4.9,6.2v20.9c0,4.4,4.6,8,9.1,8s8.9-3.7,8.9-8V22.4
	C45,10.1,34.9,0,22.5,0z"/>
<path class="st0" d="M117.6,16.3c2.2,0,4.3,0.7,6,2c3.6,2.7,8.6,2,11.4-1.5c2.7-3.5,2-8.5-1.5-11.3c-4.6-3.6-10.4-5.4-16.2-5.4
	C103,0.1,91,11.8,91,26V8.5c0-4.4-3-8-7.6-8c-4.5,0-7.4,3.7-7.4,8v21.1c0,3.5-3,6.3-6.5,6.3C66,36,63,33.1,63,29.7V8.5
	c0-4.4-4-8-8.4-8c-4.6,0-8.6,3.7-8.6,8v21.1c0,12.4,10.1,22.5,22.5,22.5S91,42.1,91,29.7v-3.5c0,14.3,12,25.9,26.3,25.9
	c5.8,0,11.4-1.8,16-5.4c3.6-2.6,4.2-7.7,1.6-11.3c-2.7-3.6-7.8-4.3-11.3-1.5c-1.7,1.3-3.7,2-6,2c-5.4,0-9.9-4.5-9.9-9.9
	C107.8,20.7,112.3,16.3,117.6,16.3z"/>
<path class="st0" d="M169.3,8.6c0.2-4.5-3.2-8.3-7.6-8.4c-2,0-6.6,0.1-10.8,2.2c-1.4-1.2-3.7-1.9-5.7-1.9c-4.3,0-8.2,3.5-8.2,7.6
	v35.2c0,4.5,4,8,8.5,8c4.5,0,8.5-3.6,8.5-8V22.6c0-3.5,3.1-6.1,6.6-6.2C165.1,16.3,169.1,13.1,169.3,8.6z"/>
<path class="st0" d="M191.6,0.1c-11.5,0-20.3,7.2-23.9,15.9c-2.7,6.6-2.8,14.6,0.3,21.1c4.1,8.4,13.2,15,24.9,15
	c5.2,0,10.2-1.3,14.5-3.9c3.3-1.9,4.4-6.2,2.4-9.6c-1.9-3.3-6.2-4.5-9.5-2.5c-6.5,3.6-14.9,2.7-19.4-4.3h27c5.8,0,9.9-3,9.3-9.1
	C215.7,9.8,204.7,0.1,191.6,0.1z M181.2,21c0.9-4,5.3-7.5,10.4-7.5c5.2,0,9.5,3.5,10.4,7.5H181.2z"/>
<path class="st0" d="M320.2,0.5l-39.7-0.1c-3.2,0-6.3,1.8-7.5,5l-7.9,19.4l-7.4-18.1c-1.1-2.7-3.8-4.4-6.5-4.4
	c-2.8,0-5.5,1.6-6.6,4.4l-7.4,18.1l-7.9-19.4c-1.6-4.2-6.3-6.1-10.5-4.4c-4.1,1.7-6.1,6.3-4.4,10.5l14.2,34.9c1.9,4.7,6.4,5,8.2,5
	c2.7,0,5.4-1.6,6.5-4.4l7.8-19.1l7.7,19.1c1.2,2.9,4.5,4.4,7.2,4.4c1.8,0,5.6-0.3,7.5-5l12.2-29.9l34.5,0c4.5,0,7.9-3.7,8-8.1
	C328.3,4,324.7,0.3,320.2,0.5z"/>
</svg>
