<?xml version="1.0" encoding="utf-8"?>
<svg version="1.1" class="nucrew--logo" xmlns="http://www.w3.org/2000/svg" xmlns:xlink="http://www.w3.org/1999/xlink" x="0px" y="0px"
	 viewBox="0 0 960 560" enable-background="new 0 0 960 560" xml:space="preserve">
<g class="logo--nu">
	<path d="M341.1,286.8h0.2v-50.1h6v58.9h-7.5l-34.3-50.6h-0.2v50.6h-6v-58.9h7.5L341.1,286.8z"/>
	<path d="M382.9,297c-4.4,0-8.1-0.8-10.9-2.3c-2.8-1.5-5.1-3.5-6.7-5.8c-1.7-2.3-2.8-4.9-3.5-7.6c-0.6-2.7-1-5.3-1-7.8v-36.9h6v36.3
		c0,2.4,0.3,4.7,0.8,6.9c0.6,2.2,1.5,4.2,2.7,6c1.2,1.7,2.9,3.2,4.9,4.2c2.1,1.1,4.6,1.6,7.6,1.6s5.5-0.5,7.6-1.6
		c2.1-1.1,3.7-2.5,4.9-4.2c1.2-1.7,2.1-3.7,2.7-6c0.6-2.2,0.8-4.6,0.8-6.9v-36.3h6v36.9c0,2.4-0.3,5-1,7.8c-0.6,2.7-1.8,5.3-3.5,7.6
		c-1.7,2.3-3.9,4.3-6.8,5.8C390.9,296.3,387.3,297,382.9,297z"/>
</g>
<g class="logo--crew">
	<path d="M459,294.5c-3.8,1.7-8.2,2.6-13.2,2.6c-4.5,0-8.7-0.7-12.6-2.2c-3.9-1.5-7.2-3.6-10-6.4c-2.8-2.7-5-6-6.7-9.9
		c-1.6-3.8-2.4-8-2.4-12.6c0-4.7,0.8-9,2.5-12.8c1.6-3.8,3.9-7.1,6.8-9.8c2.9-2.7,6.3-4.8,10.1-6.2c3.9-1.4,8.1-2.2,12.6-2.2
		c4.2,0,8.2,0.7,12.3,2.2c4,1.5,7.3,3.6,9.8,6.4l-9.6,9.6c-1.3-1.8-3.1-3.2-5.2-4.1c-2.2-0.9-4.4-1.3-6.7-1.3
		c-2.5,0-4.8,0.5-6.9,1.4c-2.1,0.9-3.9,2.2-5.4,3.8c-1.5,1.6-2.7,3.5-3.5,5.7c-0.8,2.2-1.2,4.6-1.2,7.2c0,2.7,0.4,5.1,1.2,7.3
		c0.8,2.2,2,4.1,3.5,5.7c1.5,1.6,3.2,2.8,5.3,3.7c2.1,0.9,4.3,1.3,6.7,1.3c2.8,0,5.3-0.6,7.4-1.7c2.1-1.1,3.8-2.6,5.1-4.3l9.9,9.3
		C466,290.4,462.8,292.7,459,294.5z"/>
	<path d="M507.9,295.5l-12.8-23.4h-4.8v23.4h-13.9v-58.9h22.5c2.8,0,5.6,0.3,8.3,0.9c2.7,0.6,5.1,1.6,7.2,3c2.1,1.4,3.8,3.2,5.1,5.5
		s1.9,5.1,1.9,8.5c0,4-1.1,7.3-3.2,10.1c-2.2,2.7-5.2,4.7-9,5.8l15.4,25.2H507.9z M507.3,254.7c0-1.4-0.3-2.5-0.9-3.4
		c-0.6-0.9-1.3-1.5-2.3-2c-0.9-0.5-2-0.8-3.1-1c-1.1-0.2-2.2-0.2-3.3-0.2h-7.6v13.7h6.8c1.2,0,2.4-0.1,3.6-0.3
		c1.2-0.2,2.3-0.5,3.3-1c1-0.5,1.8-1.2,2.5-2.2C507,257.4,507.3,256.2,507.3,254.7z"/>
	<path d="M533.2,295.5v-58.9h39.6v12h-25.9v11.1h24.5v11.4h-24.5v12.2h27.4v12.1H533.2z"/>
	<path d="M647.7,295.5h-14.1L622,255.7h-0.2l-11.6,39.8h-14.1l-16.7-58.9h15.3l9.3,39.2h0.2l10.5-39.2h14.8l10.6,39.2h0.2l9.5-39.2
		h14.8L647.7,295.5z"/>
</g>
</svg>
